<?xml version="1.0" standalone="no"?>
<svg xmlns:xlink="http://www.w3.org/1999/xlink" id="wave" style="transform:rotate(180deg); transition: 0.3s" viewBox="0 0 1440 310" version="1.1" xmlns="http://www.w3.org/2000/svg"><defs><linearGradient id="sw-gradient-0" x1="0" x2="0" y1="1" y2="0"><stop stop-color="rgba(133, 0, 0, 1)" offset="0%"/><stop stop-color="rgba(133, 0, 0, 1)" offset="100%"/></linearGradient></defs><path style="transform:translate(0, 0px); opacity:1" fill="url(#sw-gradient-0)" d="M0,217L120,180.8C240,145,480,72,720,46.5C960,21,1200,41,1440,72.3C1680,103,1920,145,2160,170.5C2400,196,2640,207,2880,211.8C3120,217,3360,217,3600,180.8C3840,145,4080,72,4320,46.5C4560,21,4800,41,5040,72.3C5280,103,5520,145,5760,175.7C6000,207,6240,227,6480,227.3C6720,227,6960,207,7200,206.7C7440,207,7680,227,7920,196.3C8160,165,8400,83,8640,67.2C8880,52,9120,103,9360,113.7C9600,124,9840,93,10080,98.2C10320,103,10560,145,10800,149.8C11040,155,11280,124,11520,124C11760,124,12000,155,12240,155C12480,155,12720,124,12960,129.2C13200,134,13440,176,13680,165.3C13920,155,14160,93,14400,77.5C14640,62,14880,93,15120,108.5C15360,124,15600,124,15840,134.3C16080,145,16320,165,16560,160.2C16800,155,17040,124,17160,108.5L17280,93L17280,310L17160,310C17040,310,16800,310,16560,310C16320,310,16080,310,15840,310C15600,310,15360,310,15120,310C14880,310,14640,310,14400,310C14160,310,13920,310,13680,310C13440,310,13200,310,12960,310C12720,310,12480,310,12240,310C12000,310,11760,310,11520,310C11280,310,11040,310,10800,310C10560,310,10320,310,10080,310C9840,310,9600,310,9360,310C9120,310,8880,310,8640,310C8400,310,8160,310,7920,310C7680,310,7440,310,7200,310C6960,310,6720,310,6480,310C6240,310,6000,310,5760,310C5520,310,5280,310,5040,310C4800,310,4560,310,4320,310C4080,310,3840,310,3600,310C3360,310,3120,310,2880,310C2640,310,2400,310,2160,310C1920,310,1680,310,1440,310C1200,310,960,310,720,310C480,310,240,310,120,310L0,310Z"/></svg>